<svg width="46" height="44" viewBox="0 0 46 44" fill="none" xmlns="http://www.w3.org/2000/svg">
<path d="M8.90906 34C7.94906 34 7.0824 33.76 6.30906 33.28C5.53573 32.8 4.90906 32.1733 4.42906 31.4C3.94906 30.6267 3.70906 29.76 3.70906 28.8V28.2H8.02906V28.68C8.02906 28.9467 8.1224 29.1867 8.30906 29.4C8.5224 29.5867 8.7624 29.68 9.02906 29.68H21.9891C22.2557 29.68 22.4824 29.5867 22.6691 29.4C22.8557 29.1867 22.9491 28.9467 22.9491 28.68V25.56C22.9491 25.2933 22.8557 25.0667 22.6691 24.88C22.4824 24.6667 22.2557 24.56 21.9891 24.56H8.90906C7.94906 24.56 7.0824 24.3333 6.30906 23.88C5.53573 23.4 4.90906 22.7733 4.42906 22C3.94906 21.2 3.70906 20.32 3.70906 19.36V16C3.70906 15.04 3.94906 14.1733 4.42906 13.4C4.90906 12.6267 5.53573 12 6.30906 11.52C7.0824 11.04 7.94906 10.8 8.90906 10.8H22.1091C23.0691 10.8 23.9357 11.04 24.7091 11.52C25.5091 12 26.1357 12.6267 26.5891 13.4C27.0691 14.1733 27.3091 15.04 27.3091 16V16.6H22.9491V16.12C22.9491 15.8533 22.8557 15.6267 22.6691 15.44C22.4824 15.2267 22.2557 15.12 21.9891 15.12H9.02906C8.7624 15.12 8.5224 15.2267 8.30906 15.44C8.1224 15.6267 8.02906 15.8533 8.02906 16.12V19.24C8.02906 19.5067 8.1224 19.7467 8.30906 19.96C8.5224 20.1467 8.7624 20.24 9.02906 20.24H22.1091C23.0691 20.24 23.9357 20.48 24.7091 20.96C25.5091 21.4133 26.1357 22.04 26.5891 22.84C27.0691 23.6133 27.3091 24.48 27.3091 25.44V28.8C27.3091 29.76 27.0691 30.6267 26.5891 31.4C26.1357 32.1733 25.5091 32.8 24.7091 33.28C23.9357 33.76 23.0691 34 22.1091 34H8.90906Z" fill="url(#paint0_linear_483_809)"/>
<path d="M32.9296 25.68C32.9296 26.4907 33.1323 27.2053 33.5376 27.824C33.9643 28.4427 34.4763 28.9653 35.0736 29.392C35.671 29.8187 36.4816 30.32 37.5056 30.896C38.8923 31.6853 39.9483 32.4 40.6736 33.04C41.4203 33.68 41.911 34.48 42.1456 35.44C42.231 35.8667 42.2736 36.176 42.2736 36.368C42.2736 37.8613 41.4843 38.9387 39.9056 39.6C38.327 40.24 36.535 40.56 34.5296 40.56C33.7403 40.56 33.047 40.5067 32.4496 40.4C31.7456 40.272 31.0096 40.0267 30.2416 39.664C29.495 39.28 28.8656 38.8213 28.3536 38.288C27.863 37.7333 27.6176 37.168 27.6176 36.592C27.6176 35.696 28.311 34.8747 29.6976 34.128C30.0816 33.936 30.455 33.84 30.8176 33.84C31.159 33.84 31.4363 33.9147 31.6496 34.064C31.8843 34.2133 32.0016 34.3947 32.0016 34.608C32.0016 34.992 31.6923 35.3653 31.0736 35.728C30.9456 35.792 30.8816 35.888 30.8816 36.016C30.8816 36.272 31.0843 36.5813 31.4896 36.944C31.895 37.3067 32.215 37.552 32.4496 37.68C33.0896 38.0427 34.1136 38.2667 35.5216 38.352C35.6923 38.3733 35.991 38.384 36.4176 38.384C37.1856 38.384 37.8043 38.256 38.2736 38C38.743 37.744 38.9456 37.2747 38.8816 36.592C38.7963 35.6747 37.8683 34.64 36.0976 33.488L34.8816 32.72C33.7723 32.0373 32.855 31.44 32.1296 30.928C31.4256 30.3947 30.8176 29.7653 30.3056 29.04C29.7936 28.2933 29.5376 27.4613 29.5376 26.544C29.5376 25.968 29.6443 25.392 29.8576 24.816C30.327 23.4293 31.2016 22.3627 32.4816 21.616C33.7616 20.848 35.1376 20.464 36.6096 20.464C38.1243 20.464 39.3936 20.848 40.4176 21.616C41.463 22.384 41.9856 23.472 41.9856 24.88C41.9856 25.328 41.9216 25.808 41.7936 26.32C41.7083 26.704 41.3883 27.0347 40.8336 27.312C40.279 27.5893 39.7563 27.728 39.2656 27.728C38.967 27.728 38.7323 27.664 38.5616 27.536C38.4123 27.408 38.3803 27.2267 38.4656 26.992C38.5936 26.544 38.6576 26.096 38.6576 25.648C38.6576 24.944 38.4763 24.3467 38.1136 23.856C37.751 23.3653 37.2176 23.024 36.5136 22.832C36.1296 22.7467 35.8416 22.704 35.6496 22.704C34.8816 22.704 34.231 22.9813 33.6976 23.536C33.1856 24.0693 32.9296 24.784 32.9296 25.68Z" fill="url(#paint1_linear_483_809)"/>
<defs>
<linearGradient id="paint0_linear_483_809" x1="2.73741e-07" y1="0.548626" x2="31" y2="36.4514" gradientUnits="userSpaceOnUse">
<stop stop-color="#FF03D9"/>
<stop offset="0.805743" stop-color="#5500FF"/>
</linearGradient>
<linearGradient id="paint1_linear_483_809" x1="27.8826" y1="20" x2="42.1174" y2="44" gradientUnits="userSpaceOnUse">
<stop stop-color="#5500FF"/>
<stop offset="1" stop-color="#C201E6"/>
</linearGradient>
</defs>
</svg>
